<svg width="140" height="140" viewBox="0 0 140 140" fill="none" xmlns="http://www.w3.org/2000/svg">
<g clip-path="url(#clip0_137_3)">
<ellipse cx="69.5" cy="67" rx="57.5" ry="59" fill="#F3F3F3" fill-opacity="0.9" stroke="#B5AAAA" stroke-opacity="0.8"/>
<circle cx="70" cy="67" r="39" fill="#6C4C35" stroke="#C2BBBB" stroke-width="4"/>
<circle cx="70" cy="67" r="32" stroke="url(#paint0_radial_137_3)" stroke-width="10"/>
<path d="M8.01228 64.2061C9.36197 63.7197 31.6322 61.7542 30.9574 64.2061C30.2825 66.658 30.9574 68.7838 30.9574 70.8612C30.9573 72.9385 9.36198 71.0752 8.01228 70.8612C6.66257 70.6471 6.66258 64.6926 8.01228 64.2061Z" fill="white" fill-opacity="0.9"/>
<path d="M20.2656 63.6035C23.0865 63.4809 25.8252 63.451 27.8086 63.6016C28.8075 63.6774 29.5776 63.7969 30.0645 63.957C30.2803 64.028 30.3997 64.0955 30.458 64.1406C30.117 65.4203 30.1211 66.608 30.2061 67.7129C30.2925 68.8379 30.4465 69.7895 30.4551 70.7764C30.4524 70.7781 30.4503 70.7813 30.4473 70.7832C30.3556 70.8413 30.1833 70.9126 29.9062 70.9814C29.36 71.1172 28.5491 71.2119 27.5342 71.2686C25.5136 71.3813 22.7916 71.337 20.0117 71.2207C14.4466 70.9879 8.73589 70.4694 8.09082 70.3672C8.1099 70.3703 8.06657 70.3749 7.98145 70.251C7.8976 70.1289 7.81097 69.9336 7.73438 69.6631C7.5822 69.1255 7.5 68.3951 7.5 67.6357C7.5 66.8776 7.58206 66.127 7.73633 65.5508C7.81373 65.2617 7.90429 65.0363 7.99805 64.8809C8.0948 64.7206 8.16493 64.6829 8.18164 64.6768C8.21818 64.6636 8.34189 64.6332 8.58398 64.5918C8.81183 64.5529 9.11263 64.5092 9.47754 64.4619C10.2067 64.3674 11.1787 64.2611 12.3086 64.1543C14.5683 63.9406 17.4492 63.7259 20.2656 63.6035Z" stroke="#C2BBBB" stroke-opacity="0.7"/>
<path d="M79.5706 56.9238C80.6304 56.6976 81.5681 56.4554 82.5233 56.1722C87.2813 54.8255 91.6871 52.1784 93.2622 47.8508C94.9463 43.5835 94.6133 38.573 95.5698 33.4827C95.9837 31.2786 96.6448 29.015 97.8305 26.9518C101.371 20.7477 108.572 18.9656 114.656 18.7483C115.637 18.7179 116.665 18.7193 117.741 18.7532C116.693 19.0008 115.706 19.2596 114.778 19.5276C108.883 21.1924 103.116 23.5993 100.433 28.444C99.4746 30.1099 98.895 32.0261 98.5179 34.0383C97.6063 38.6631 97.8045 43.9265 95.432 48.8344C93.0504 53.9177 87.5302 56.1626 82.6309 56.6906C81.6258 56.8126 80.6535 56.8812 79.5706 56.9238Z" fill="url(#paint1_linear_137_3)"/>
<path d="M80.5013 56.3349C81.5574 56.5777 82.5096 56.7545 83.495 56.9015C88.3763 57.6918 93.488 57.1547 96.7445 53.8982C100.074 50.7425 101.89 46.0606 104.908 41.8516C106.215 40.0288 107.771 38.2567 109.717 36.888C115.548 32.7613 122.827 34.1895 128.433 36.5637C129.335 36.951 130.266 37.3865 131.227 37.8722C130.173 37.6536 129.169 37.4711 128.214 37.3215C122.168 36.339 115.924 36.0832 111.445 39.3403C109.873 40.445 108.537 41.9367 107.345 43.6011C104.565 47.4072 102.52 52.2613 98.2953 55.7067C93.9886 59.3072 88.0369 59.0089 83.3734 57.4169C82.4109 57.1026 81.5007 56.7539 80.5013 56.3349Z" fill="url(#paint2_linear_137_3)"/>
<path d="M80.9027 55.2024C81.6959 55.9408 82.4321 56.5699 83.212 57.19C87.0442 60.315 91.7396 62.4058 96.1881 61.2138C100.65 60.1458 104.563 56.999 109.281 54.8629C111.324 53.9377 113.558 53.1809 115.928 52.9688C123.04 52.3103 128.631 57.1868 132.298 62.046C132.886 62.8325 133.474 63.675 134.064 64.5762C133.26 63.8597 132.482 63.1997 131.73 62.5927C126.985 58.7188 121.705 55.3753 116.198 55.9566C114.284 56.127 112.382 56.7513 110.517 57.5965C106.206 59.5025 102.008 62.6838 96.6268 63.5554C91.0968 64.5201 86.0917 61.286 82.849 57.5755C82.1726 56.8221 81.5587 56.065 80.9027 55.2024Z" fill="url(#paint3_linear_137_3)"/>
<line x1="63.25" y1="77" x2="63.25" y2="57" stroke="#E8E7E7" stroke-width="2.5"/>
<line x1="80.75" y1="77" x2="80.75" y2="57" stroke="#E8E7E7" stroke-width="2.5"/>
<line x1="62" y1="55.5" x2="82" y2="55.5" stroke="#E8E7E7" stroke-width="3"/>
<line x1="62" y1="61.5" x2="82" y2="61.5" stroke="#E8E7E7" stroke-width="3"/>
<ellipse cx="74.5" cy="77.5" rx="4.5" ry="7.5" transform="rotate(90 74.5 77.5)" fill="#E8E7E7"/>
<path d="M80.3962 77.5123C80.5279 77.2061 80.6596 76.8999 80.7913 76.5937C80.5695 76.4617 80.3314 76.3589 80.0884 76.2809C77.8689 75.6906 75.8995 76.3299 74.0697 76.6503C72.2127 77.0145 70.4477 77.3633 68.7619 76.8541C68.5746 76.7966 68.3935 76.7313 68.2086 76.6515C68.0279 76.9315 67.8472 77.2116 67.6665 77.4916C67.8502 77.6495 68.0394 77.792 68.2448 77.9245C70.1472 79.1499 72.5276 79.0013 74.4622 78.6115C76.408 78.2456 78.2128 77.4602 79.8611 77.45C80.0442 77.455 80.2224 77.474 80.3962 77.5123Z" fill="url(#paint4_radial_137_3)"/>
<ellipse cx="56.75" cy="77.25" rx="4.75" ry="7.75" transform="rotate(90 56.75 77.25)" fill="#E8E7E7"/>
<path d="M62.8457 77.236C62.9798 76.9309 63.1139 76.6257 63.248 76.3206C63.0199 76.1836 62.7746 76.077 62.524 75.9964C60.2315 75.3884 58.1981 76.0706 56.3064 76.4088C54.3871 76.7938 52.5548 77.1535 50.8143 76.5992C50.6209 76.5368 50.4345 76.4663 50.2439 76.3805C50.0605 76.6588 49.8771 76.937 49.6936 77.2153C49.8824 77.3793 50.0763 77.5271 50.2876 77.6649C52.2438 78.9415 54.7094 78.7804 56.7067 78.3685C58.7166 77.9828 60.5831 77.1596 62.2916 77.1646C62.4814 77.1716 62.6658 77.1936 62.8457 77.236Z" fill="url(#paint5_radial_137_3)"/>
</g>
<defs>
<radialGradient id="paint0_radial_137_3" cx="0" cy="0" r="1" gradientUnits="userSpaceOnUse" gradientTransform="translate(70 67) rotate(90) scale(37)">
<stop offset="0.889423" stop-color="#6C4C35"/>
<stop offset="1" stop-color="#C2BBBB"/>
</radialGradient>
<linearGradient id="paint1_linear_137_3" x1="118.615" y1="19.262" x2="80.2619" y2="57.615" gradientUnits="userSpaceOnUse">
<stop offset="0.110577" stop-color="#3660CC" stop-opacity="0.7"/>
<stop offset="0.817308" stop-color="#CE5854" stop-opacity="0.8"/>
</linearGradient>
<linearGradient id="paint2_linear_137_3" x1="131.804" y1="38.7025" x2="80.8357" y2="57.2535" gradientUnits="userSpaceOnUse">
<stop offset="0.110577" stop-color="#3660CC" stop-opacity="0.7"/>
<stop offset="0.817308" stop-color="#CE5854" stop-opacity="0.8"/>
</linearGradient>
<linearGradient id="paint3_linear_137_3" x1="134.148" y1="65.5837" x2="80.733" y2="56.1651" gradientUnits="userSpaceOnUse">
<stop offset="0.110577" stop-color="#3660CC" stop-opacity="0.7"/>
<stop offset="0.817308" stop-color="#CE5854" stop-opacity="0.8"/>
</linearGradient>
<radialGradient id="paint4_radial_137_3" cx="0" cy="0" r="1" gradientTransform="matrix(-0.9375 1.5 -16.2863 -8.20296 74.2658 77.0712)" gradientUnits="userSpaceOnUse">
<stop stop-color="#CCCCCC"/>
<stop offset="1" stop-color="#6C4C35"/>
</radialGradient>
<radialGradient id="paint5_radial_137_3" cx="0" cy="0" r="1" gradientTransform="matrix(-0.96875 1.58333 -16.8292 -8.65868 56.508 76.7976)" gradientUnits="userSpaceOnUse">
<stop stop-color="#CCCCCC"/>
<stop offset="1" stop-color="#6C4C35"/>
</radialGradient>
<clipPath id="clip0_137_3">
<rect width="140" height="140" fill="white"/>
</clipPath>
</defs>
</svg>
